<svg width="40" height="40" viewBox="0 0 40 40" fill="none" xmlns="http://www.w3.org/2000/svg">
<path fill-rule="evenodd" clip-rule="evenodd" d="M37.8538 22.8426C37.8952 23.3811 37.9181 23.6779 38.589 24.3488L40 25.7598L17.2648 34.2044L13.8404 37.6285C10.6783 40.7906 5.53343 40.7905 2.37148 37.6286C-0.790477 34.4666 -0.790477 29.3216 2.37163 26.1596L5.79569 22.7355L14.2401 0L15.6512 1.41094C16.3225 2.08219 16.6192 2.10508 17.1581 2.14656C18.0963 2.21883 19.0408 2.38609 20.2794 3.62453C21.5362 4.88148 21.8071 5.96477 22.0247 6.83523L22.0248 6.83572C22.2086 7.57031 22.3413 8.10102 23.0965 8.85617C23.8518 9.61141 24.3826 9.7443 25.1175 9.92797C25.9879 10.1455 27.0711 10.4165 28.3277 11.6731C29.5847 12.9298 29.8555 14.0133 30.0731 14.8836L30.0731 14.8837C30.2568 15.6185 30.3895 16.1493 31.1448 16.9045C31.8998 17.6597 32.4308 17.7924 33.1655 17.9759L33.1659 17.976C34.0363 18.1938 35.1193 18.4646 36.3757 19.7211C37.6142 20.9595 37.7816 21.9041 37.8537 22.8421L37.8538 22.8426ZM3.38366 28.9826C2.06538 31.1208 2.33062 33.9659 4.18234 35.8176C6.03405 37.6695 8.87929 37.9348 11.0176 36.6165L3.38366 28.9826ZM12.9351 34.9123L5.08788 27.065L6.89874 25.2543L14.7459 33.1014L12.9351 34.9123ZM8.38499 23.1188L16.8809 31.6148L35.6666 24.6371C35.408 24.0707 35.3398 23.5534 35.3001 23.0384C35.2587 22.4998 35.2358 22.203 34.5648 21.532C33.8096 20.7768 33.2788 20.6441 32.5442 20.4604L32.5441 20.4604C31.6737 20.2428 30.5905 19.9719 29.3337 18.7152C28.0769 17.4584 27.8061 16.3752 27.5885 15.5047L27.5883 15.5038C27.4046 14.7696 27.2718 14.2389 26.5169 13.4839C25.7616 12.7286 25.2307 12.5959 24.4959 12.4123C23.6256 12.1946 22.5423 11.9237 21.2855 10.6669C20.0287 9.41016 19.7577 8.3268 19.5401 7.45641L19.54 7.45585C19.3563 6.72129 19.2235 6.19051 18.4684 5.43531C17.7972 4.7643 17.5004 4.74141 16.9616 4.70008C16.4465 4.66031 15.9293 4.59203 15.3624 4.33313L8.38499 23.1188Z" fill="#FF5145"/>
</svg>
