<svg width="25" height="40" viewBox="0 0 25 40" fill="none" xmlns="http://www.w3.org/2000/svg">
<path fill-rule="evenodd" clip-rule="evenodd" d="M22.4359 0.854531L24.9359 8.35453C25.0213 8.61148 25.0213 8.88852 24.9359 9.14547L22.4359 16.6455C22.2656 17.1558 21.7884 17.5 21.25 17.5H17.5V21.25C17.5 21.9403 16.9403 22.5 16.25 22.5H13.75V23.2373C13.75 24.248 14.3561 25.1666 15.2576 25.5237C18.1384 26.6632 20 29.4012 20 32.4994C20.0006 34.4671 19.2108 36.3409 17.7759 37.7759C16.3416 39.2102 14.4677 40 12.4994 40C8.36429 40 4.99999 36.6358 4.99999 32.5C4.99999 31.8097 5.55968 31.25 6.24999 31.25C6.94031 31.25 7.49999 31.8097 7.49999 32.5C7.49999 35.257 9.74242 37.5 12.4994 37.5C13.8001 37.5 15.0464 36.9702 16.0083 36.0077C16.9702 35.0458 17.5 33.8 17.5 32.4994C17.5 30.434 16.2591 28.6078 14.3384 27.848C12.4909 27.1173 11.25 25.2643 11.25 23.2373V22.5H8.74999C8.05968 22.5 7.49999 21.9403 7.49999 21.25V17.5H5.0039H4.99999H4.99624H3.74999C3.21163 17.5 2.73437 17.1558 2.56406 16.6455L0.0640558 9.14555C-0.021413 8.88859 -0.021413 8.61148 0.0640558 8.35453L2.56406 0.854531C2.73437 0.344219 3.21163 0 3.74999 0H21.25C21.7884 0 22.2656 0.344219 22.4359 0.854531ZM11.7344 15H14.0989L18.2656 2.5H15.9011L11.7344 15ZM6.73437 15L10.9011 2.5H13.2656L9.0989 15H6.73437ZM4.65085 2.5L2.56773 8.75L4.37492 14.172L8.26562 2.5H4.65085ZM15 20H9.99999V17.5H10.0039H14.9962C14.9975 17.5 15 17.5006 15 17.5006V20ZM16.7344 15H20.3491L22.4323 8.75L20.6251 3.32797L16.7344 15Z" fill="#FF5145"/>
</svg>
