<svg width="25" height="40" viewBox="0 0 25 40" fill="none" xmlns="http://www.w3.org/2000/svg">
<path fill-rule="evenodd" clip-rule="evenodd" d="M24.6133 19.1554C24.6133 12.39 19.1091 6.88574 12.3436 6.88574C5.57804 6.88574 0.0739746 12.39 0.0739746 19.1554C0.0739746 23.3043 2.19226 27.1821 5.64601 29.4372V33.3027C5.64601 36.9957 8.65046 40 12.3434 40C16.0364 40 19.0408 36.9956 19.0408 33.3027V31.1316L19.0408 29.4374C22.4949 27.1822 24.6133 23.3045 24.6133 19.1554ZM16.6757 33.3028C16.6757 35.6915 14.7323 37.6348 12.3436 37.6348C9.95483 37.6348 8.01147 35.6914 8.01147 33.3028V32.3142H16.6757V33.3028ZM16.6757 28.7757C16.6757 28.3522 16.902 27.9611 17.2692 27.7502C20.3402 25.9861 22.248 22.6927 22.2482 19.1554C22.2482 13.6941 17.8051 9.25105 12.3438 9.25105C6.88249 9.25105 2.43944 13.6942 2.43944 19.1554C2.43944 22.6926 4.3471 25.9859 7.41812 27.7502C7.7853 27.9611 8.01163 28.3522 8.01163 28.7757V29.9489H11.1609V23.8334C9.62522 23.3338 8.51187 21.8894 8.51187 20.1893C8.51187 19.5362 9.0414 19.0067 9.69452 19.0067C10.3476 19.0067 10.8772 19.5362 10.8772 20.1893C10.8772 20.9979 11.5351 21.6557 12.3436 21.6557C13.1521 21.6557 13.8099 20.9979 13.8099 20.1893C13.8099 19.5362 14.3394 19.0067 14.9926 19.0067C15.6457 19.0067 16.1752 19.5362 16.1752 20.1893C16.1752 21.8895 15.0618 23.3338 13.5262 23.8334V29.9489H16.6757V28.7757Z" fill="#FF5145"/>
<path d="M12.3436 0C11.6905 0 11.1609 0.529531 11.1609 1.18266V3.25883C11.1609 3.91195 11.6905 4.44148 12.3436 4.44148C12.9967 4.44148 13.5262 3.91195 13.5262 3.25883V1.18266C13.5262 0.529531 12.9968 0 12.3436 0Z" fill="#FF5145"/>
<path d="M9.01687 3.56221L8.2828 1.62002C8.05187 1.00908 7.36913 0.701037 6.75843 0.931897C6.14749 1.16283 5.83937 1.84533 6.0703 2.45627L6.80429 4.39846C6.98319 4.87174 7.43304 5.1633 7.91077 5.1633C8.04968 5.1633 8.19108 5.13862 8.32874 5.08658C8.93968 4.85565 9.2478 4.17315 9.01687 3.56221Z" fill="#FF5145"/>
<path d="M17.9287 0.93195C17.3177 0.700934 16.6353 1.00922 16.4044 1.62015L15.6703 3.56234C15.4394 4.1732 15.7476 4.8557 16.3585 5.08664C16.4962 5.13867 16.6375 5.16336 16.7764 5.16336C17.2542 5.16336 17.7041 4.87179 17.8829 4.39851L18.6169 2.45633C18.8479 1.84531 18.5398 1.16289 17.9287 0.93195Z" fill="#FF5145"/>
</svg>
